{"glyphs":{" ":{"ha":694,"x_min":0,"x_max":0,"o":""},"A":{"ha":1160,"x_min":0,"x_max":1158,"o":"m 560 1118 l 35 74 l 0 74 l 0 0 l 81 0 l 579 997 l 781 594 l 514 594 q 440 567 468 594 q 413 493 413 539 q 441 419 413 449 q 514 390 469 390 l 882 390 l 1078 0 l 1158 0 l 1158 74 l 1122 74 l 928 464 l 514 464 q 485 493 485 464 q 514 521 485 521 l 899 521 l 603 1118 l 560 1118 z "},"B":{"ha":981,"x_min":0,"x_max":982,"o":"m 65 1111 l 65 101 q 36 74 65 75 l 0 72 l 0 0 l 38 0 q 110 28 82 0 q 139 101 139 57 l 139 1038 l 621 1038 q 706 1017 667 1038 q 779 881 779 978 q 706 744 779 783 q 621 722 664 722 l 297 722 q 224 693 254 722 q 194 621 194 664 q 224 548 194 576 q 297 519 253 519 l 621 519 q 706 497 665 519 q 779 361 779 457 q 706 225 779 265 q 621 203 665 203 l 297 203 q 224 174 253 203 q 194 101 194 146 q 224 28 194 57 q 297 0 253 0 l 982 0 l 982 74 l 297 74 q 268 101 268 74 q 297 129 268 129 l 621 129 q 767 176 703 129 q 853 361 853 239 q 767 546 853 483 q 621 592 704 592 l 297 592 q 268 621 268 592 q 297 649 268 649 l 621 649 q 767 696 703 649 q 853 881 853 758 q 767 1064 853 1001 q 621 1111 703 1111 l 65 1111 z "},"C":{"ha":983,"x_min":0,"x_max":985,"o":"m 65 685 l 65 556 q 276 185 65 292 q 490 129 386 129 l 688 129 q 717 101 717 129 q 688 74 717 74 l 0 74 l 0 0 l 688 0 q 760 29 731 0 q 789 101 789 58 q 761 175 789 147 q 688 203 733 203 l 490 203 q 308 249 397 203 q 138 556 138 336 l 138 685 q 308 992 138 904 q 490 1038 397 1038 q 672 992 583 1038 q 843 685 843 903 q 815 657 843 657 q 786 686 786 657 q 726 872 785 792 q 490 982 646 982 q 254 872 333 982 q 194 685 194 790 l 194 556 q 254 369 194 451 q 490 260 335 260 l 688 260 q 772 238 732 260 q 846 101 846 197 q 874 28 846 56 q 947 0 901 0 l 983 0 l 985 72 l 947 74 q 919 101 919 75 q 833 286 919 224 q 688 333 769 333 l 490 333 q 297 440 353 333 q 268 556 268 497 l 268 685 q 297 800 268 743 q 490 908 353 908 q 683 800 628 908 q 714 685 713 743 q 743 612 715 640 q 815 583 771 583 q 888 613 858 583 q 917 685 917 642 q 706 1056 917 949 q 490 1111 596 1111 q 276 1056 386 1111 q 65 685 65 949 z "},"D":{"ha":981,"x_min":0,"x_max":982,"o":"m 65 1111 l 65 101 q 36 74 65 75 l 0 72 l 0 0 l 38 0 q 110 28 82 0 q 139 101 139 57 l 139 1038 l 426 1038 q 642 983 536 1038 q 844 621 844 879 q 642 257 844 363 q 426 203 538 203 l 297 203 q 221 175 250 203 q 193 100 192 147 q 224 28 194 56 q 297 0 253 0 l 982 0 l 982 74 l 297 74 q 265 103 267 74 q 296 129 264 129 l 426 129 q 674 193 549 129 q 917 621 917 317 q 674 1047 917 924 q 426 1111 549 1111 l 65 1111 z "},"E":{"ha":915,"x_min":0,"x_max":917,"o":"m 65 1111 l 65 101 q 36 74 65 75 l 0 72 l 0 0 l 38 0 q 110 28 82 0 q 139 101 139 57 l 139 1038 l 750 1038 q 779 1010 779 1038 q 750 982 779 982 l 361 982 q 242 935 289 982 q 194 815 194 888 q 242 696 194 743 q 361 649 289 649 l 621 649 q 649 621 649 649 q 621 592 649 592 l 361 592 q 242 545 289 592 q 194 426 194 499 q 242 307 194 354 q 361 260 289 260 l 750 260 q 779 231 779 260 q 750 203 779 203 l 297 203 q 224 174 253 203 q 194 101 194 146 q 224 28 194 57 q 297 0 253 0 l 917 0 l 917 74 l 297 74 q 268 101 268 74 q 297 129 268 129 l 750 129 q 823 158 793 129 q 853 231 853 188 q 824 304 853 275 q 750 333 794 333 l 361 333 q 268 426 268 333 q 294 494 268 468 q 361 519 319 519 l 621 519 q 694 547 667 519 q 722 621 722 575 q 694 694 722 665 q 621 722 665 722 l 361 722 q 294 748 319 722 q 268 815 268 774 q 294 883 268 857 q 361 908 319 908 l 750 908 q 824 937 794 908 q 853 1010 853 965 q 824 1083 853 1054 q 750 1111 794 1111 l 65 1111 z "},"F":{"ha":915,"x_min":0,"x_max":917,"o":"m 65 1111 l 65 101 q 36 74 65 75 l 0 72 l 0 0 l 38 0 q 110 28 82 0 q 139 101 139 57 l 139 1038 l 750 1038 q 779 1010 779 1038 q 750 982 779 982 l 361 982 q 242 935 289 982 q 194 815 194 888 q 242 696 194 743 q 361 649 289 649 l 621 649 q 649 621 649 649 q 621 592 649 592 l 361 592 q 242 545 289 592 q 194 426 194 499 l 194 0 l 917 0 l 917 74 l 268 74 l 268 426 q 294 494 268 468 q 361 519 319 519 l 621 519 q 694 547 667 519 q 722 621 722 575 q 694 694 722 665 q 621 722 665 722 l 361 722 q 294 748 319 722 q 268 815 268 774 q 294 883 268 857 q 361 908 319 908 l 750 908 q 824 937 794 908 q 853 1010 853 965 q 824 1083 853 1054 q 750 1111 794 1111 l 65 1111 z "},"G":{"ha":981,"x_min":0,"x_max":982,"o":"m 65 815 l 65 426 q 175 190 65 271 q 361 129 258 129 l 685 129 q 714 101 714 129 q 685 74 714 74 l 0 74 l 0 0 l 685 0 q 758 28 731 0 q 786 101 786 56 q 758 175 786 147 q 685 203 731 203 l 361 203 q 278 218 322 203 q 138 426 138 267 l 138 815 q 246 1008 138 953 q 361 1038 303 1038 l 621 1038 q 736 1008 679 1038 q 843 815 843 953 l 843 750 q 815 722 843 722 q 786 750 786 722 l 786 815 q 740 935 786 889 q 621 982 694 982 l 361 982 q 242 935 289 982 q 194 815 194 888 l 194 426 q 242 307 194 354 q 361 260 289 260 l 685 260 q 758 288 731 260 q 786 361 786 315 q 758 435 786 407 q 685 463 731 463 l 490 463 q 463 490 463 463 q 492 519 463 519 l 685 519 q 771 497 731 519 q 843 361 843 457 l 843 101 q 872 28 843 57 q 944 0 900 0 l 982 0 l 982 74 l 944 74 q 917 101 917 74 l 917 361 q 852 528 917 464 q 685 592 788 592 l 490 592 q 417 563 446 592 q 389 490 389 535 q 418 418 389 447 q 490 389 447 389 l 685 389 q 714 361 714 389 q 685 333 714 333 l 361 333 q 293 358 318 333 q 268 426 268 383 l 268 815 q 293 883 268 858 q 361 908 318 908 l 621 908 q 688 883 663 908 q 714 815 714 857 l 714 750 q 742 677 714 706 q 815 649 771 649 q 888 678 858 649 q 917 750 917 707 l 917 815 q 807 1051 917 971 q 621 1111 725 1111 l 361 1111 q 175 1051 257 1111 q 65 815 65 971 z "},"H":{"ha":981,"x_min":0,"x_max":982,"o":"m 714 1010 l 714 685 q 688 617 714 643 q 621 592 663 592 l 361 592 q 293 617 318 592 q 268 686 268 643 l 268 1010 q 240 1083 268 1054 q 167 1111 211 1111 q 94 1083 122 1111 q 65 1010 65 1054 l 65 101 q 36 74 65 75 l 0 72 l 0 0 l 38 0 q 110 28 82 0 q 139 101 139 57 l 139 1010 q 167 1038 139 1038 q 194 1010 194 1038 l 194 685 q 241 565 194 611 q 361 519 288 519 l 621 519 q 741 565 694 519 q 788 685 788 611 l 788 1010 q 815 1038 788 1038 q 844 1010 844 1038 l 844 101 q 873 28 844 57 q 946 0 901 0 l 982 0 l 982 74 l 946 74 q 917 101 917 74 l 917 1010 q 888 1083 917 1054 q 815 1111 860 1111 q 743 1082 772 1111 q 714 1010 714 1053 z "},"I":{"ha":335,"x_min":0,"x_max":335,"o":"m 297 74 q 268 101 268 75 l 268 881 q 246 946 268 917 q 268 1010 268 974 q 238 1081 268 1051 q 167 1111 208 1111 q 95 1081 125 1111 q 65 1010 65 1051 q 88 946 65 974 q 65 881 65 917 l 65 101 q 36 74 65 75 l 0 72 l 0 0 l 38 0 q 110 28 82 0 q 139 101 139 57 l 139 881 q 167 908 139 908 q 194 879 194 908 l 194 101 q 224 28 194 57 q 297 0 253 -1 l 335 1 l 333 72 l 297 74 m 167 1038 q 194 1010 194 1038 q 167 982 194 982 q 139 1010 139 982 q 167 1038 139 1038 z "},"J":{"ha":724,"x_min":0,"x_max":722,"o":"m 483 1083 q 469 1068 483 1083 q 454 1010 454 1054 l 454 296 q 428 228 454 254 q 361 203 403 203 q 294 228 319 203 q 268 296 268 254 l 268 490 q 240 564 268 536 q 167 592 213 592 q 94 563 122 592 q 65 490 65 535 l 65 101 q 36 74 65 75 l 0 72 l 0 0 l 38 0 q 110 28 82 0 q 139 101 139 57 l 139 490 q 167 519 139 519 q 194 490 194 519 l 194 296 q 242 176 194 224 q 361 129 289 129 q 481 176 433 129 q 528 296 528 224 l 528 1010 q 556 1038 528 1038 q 585 1010 585 1038 l 585 101 q 613 28 585 57 q 686 0 642 0 l 722 0 l 722 74 l 686 74 q 657 101 657 74 l 657 1010 q 628 1083 657 1054 q 556 1111 600 1111 q 483 1083 513 1111 z "},"K":{"ha":976,"x_min":0,"x_max":976,"o":"m 976 78 l 799 78 l 421 371 q 381 443 381 401 q 403 501 381 468 l 488 629 l 704 953 q 722 1011 722 979 q 664 1100 722 1071 q 601 1110 632 1115 q 536 1065 561 1101 l 319 742 q 268 667 300 713 l 268 1010 q 240 1083 268 1054 q 167 1111 211 1111 q 94 1083 122 1111 q 65 1010 65 1054 l 65 104 q 36 76 65 78 l 0 75 l 0 3 l 38 3 q 109 32 81 3 q 138 104 138 61 l 138 1010 q 167 1038 138 1038 q 194 1010 194 1038 l 194 492 l 236 492 l 381 701 l 597 1024 q 636 1032 613 1047 q 643 993 660 1017 l 344 544 q 308 425 301 479 q 375 313 318 357 l 774 0 l 775 3 l 976 3 l 976 78 z "},"L":{"ha":788,"x_min":0,"x_max":788,"o":"m 65 1010 l 65 101 q 36 74 65 75 l 0 72 l 0 0 l 38 0 q 110 28 82 0 q 139 101 139 57 l 139 1010 q 167 1038 139 1038 q 194 1010 194 1038 l 194 426 q 242 307 194 354 q 361 260 289 260 l 621 260 q 649 231 649 260 q 621 203 649 203 l 297 203 q 224 174 253 203 q 194 101 194 146 q 224 28 194 57 q 297 0 253 0 l 788 0 l 788 74 l 297 74 q 268 101 268 74 q 297 129 268 129 l 621 129 q 694 158 665 129 q 722 231 722 186 q 694 304 722 275 q 621 333 665 333 l 361 333 q 293 358 318 333 q 268 426 268 383 l 268 1010 q 240 1083 268 1054 q 167 1111 211 1111 q 94 1082 124 1111 q 65 1010 65 1053 z "},"M":{"ha":981,"x_min":0,"x_max":981,"o":"m 915 101 l 915 1111 l 863 1111 l 490 615 l 118 1111 l 65 1111 l 65 101 q 36 74 65 75 l 0 72 l 0 0 l 38 0 q 110 28 82 0 q 139 101 139 57 l 139 963 l 490 493 l 842 963 l 842 101 q 870 28 842 57 q 943 0 899 0 l 979 0 l 981 72 l 944 74 q 915 101 915 75 z "},"N":{"ha":851,"x_min":0,"x_max":851,"o":"m 582 1007 l 582 192 l 122 1111 l 65 1111 l 65 103 q 36 74 65 74 l 0 74 l 0 1 l 38 1 q 110 30 82 1 q 138 103 138 58 l 138 918 l 599 0 l 656 0 l 656 1007 q 683 1036 656 1036 q 713 1007 713 1036 l 713 103 q 813 1 713 13 l 851 -3 l 850 74 l 814 74 q 785 103 785 74 l 785 1007 q 757 1081 785 1053 q 683 1108 729 1108 q 610 1080 639 1108 q 582 1007 582 1051 z "},"O":{"ha":1119,"x_min":0,"x_max":1118,"o":"m 65 624 q 176 314 65 450 q 457 142 286 178 l 457 74 l 0 74 l 0 0 l 531 0 l 531 204 l 499 208 q 242 348 344 228 q 139 624 139 468 q 261 922 139 799 q 558 1044 383 1044 q 857 922 735 1044 q 979 624 979 800 q 876 348 979 468 q 619 208 774 228 l 588 204 l 588 0 l 1118 0 l 1118 74 l 661 74 l 661 142 q 942 314 832 178 q 1053 624 1053 450 q 909 974 1053 831 q 558 1118 765 1118 q 209 974 353 1118 q 65 624 65 831 z "},"P":{"ha":851,"x_min":0,"x_max":853,"o":"m 65 1111 l 65 101 q 36 74 65 75 l 0 72 l 0 0 l 38 0 q 110 28 82 0 q 139 101 139 57 l 139 1038 l 492 1038 q 607 1008 550 1038 q 714 815 714 953 q 607 622 714 678 q 492 592 547 592 l 297 592 q 224 563 253 592 q 194 490 194 535 l 194 0 l 853 0 l 853 74 l 268 74 l 268 490 q 297 519 268 519 l 492 519 q 678 579 596 519 q 788 815 788 660 q 678 1051 788 971 q 492 1111 596 1111 l 65 1111 z "},"Q":{"ha":1240,"x_min":0,"x_max":1240,"o":"m 65 556 q 140 277 65 406 q 346 74 215 149 l 0 74 l 0 0 l 619 0 l 619 74 q 278 214 418 74 q 138 556 138 354 q 278 897 138 757 q 619 1038 418 1038 q 963 898 822 1038 q 1103 556 1103 758 q 1042 321 1103 431 l 757 606 q 683 636 726 636 q 613 605 644 636 q 582 535 582 574 q 614 463 582 493 l 1088 0 l 1240 0 l 1240 74 l 1118 74 q 665 514 1101 89 q 656 533 656 524 q 665 554 656 544 q 706 553 685 574 l 1053 206 l 1078 242 q 1175 556 1175 382 q 1014 950 1175 789 q 619 1111 853 1111 q 226 950 386 1111 q 65 556 65 789 z "},"R":{"ha":851,"x_min":0,"x_max":853,"o":"m 765 74 l 319 519 l 492 519 q 678 579 596 519 q 788 815 788 660 q 678 1051 788 971 q 492 1111 596 1111 l 65 1111 l 65 101 q 36 74 65 75 l 0 72 l 0 0 l 38 0 q 110 28 82 0 q 139 101 139 57 l 139 1038 l 492 1038 q 607 1008 550 1038 q 714 815 714 953 q 607 622 714 678 q 492 592 547 592 l 210 592 l 210 525 l 736 0 l 853 0 l 853 74 l 765 74 z "},"S":{"ha":788,"x_min":0,"x_max":788,"o":"m 65 782 q 188 521 65 610 q 394 454 279 454 q 461 436 428 454 q 519 329 519 404 q 461 221 519 253 q 393 203 429 203 q 326 221 358 203 q 268 329 268 253 l 268 393 q 240 467 268 439 q 167 494 213 494 q 93 467 121 494 q 65 393 65 439 l 65 101 q 36 74 65 75 l 0 72 l 0 0 l 38 0 q 110 29 81 0 q 139 101 139 58 l 139 393 q 167 422 139 422 q 194 393 194 422 l 194 329 q 251 185 194 242 q 394 129 307 129 q 538 185 482 129 q 593 329 593 242 q 537 472 593 415 q 394 528 481 528 q 263 561 326 528 q 139 782 139 625 q 263 1004 139 940 q 394 1038 326 1038 q 525 1004 461 1038 q 649 782 649 940 l 649 750 q 621 722 649 722 q 593 750 593 722 l 593 782 q 538 926 593 869 q 394 982 482 982 q 251 926 307 982 q 194 782 194 869 q 390 583 194 601 q 525 550 476 575 q 649 329 649 486 q 525 107 649 171 q 394 74 461 74 l 394 0 l 788 0 l 788 74 l 608 74 q 722 329 722 163 q 601 590 722 501 q 394 657 510 657 q 326 675 360 657 q 268 782 268 707 l 268 782 q 326 890 268 858 q 394 908 358 908 q 461 890 429 908 q 519 782 519 858 l 519 750 q 548 677 519 706 q 621 649 576 649 q 694 677 665 649 q 722 750 722 706 l 722 782 q 601 1044 722 956 q 394 1111 510 1111 q 188 1044 279 1111 q 65 782 65 956 z "},"T":{"ha":1113,"x_min":0,"x_max":1111,"o":"m 65 1010 q 94 937 65 965 q 167 908 122 908 l 454 908 l 454 167 q 361 74 454 74 l 0 74 l 0 0 l 361 0 q 481 47 435 0 q 528 167 528 93 l 528 982 l 167 982 q 138 1010 138 982 q 167 1038 138 1038 l 944 1038 q 974 1010 974 1038 q 944 982 974 982 l 583 982 l 583 167 q 631 47 583 94 q 750 0 678 0 l 1111 0 l 1111 74 l 750 74 q 657 167 657 74 l 657 908 l 944 908 q 1018 936 990 908 q 1046 1010 1046 964 q 1018 1083 1046 1056 q 944 1111 990 1111 l 167 1111 q 93 1083 121 1111 q 65 1010 65 1056 z "},"U":{"ha":983,"x_min":0,"x_max":983,"o":"m 714 1010 l 714 426 q 685 310 714 367 q 492 203 629 203 q 299 310 354 203 q 268 426 268 369 l 268 1010 q 240 1083 268 1054 q 167 1111 211 1111 q 94 1082 124 1111 q 65 1010 65 1053 l 65 101 q 36 74 65 75 l 0 72 l 0 0 l 38 0 q 110 28 82 0 q 139 101 139 57 l 139 1010 q 167 1038 139 1038 q 194 1010 194 1038 l 194 426 q 256 239 194 322 q 492 129 336 129 q 726 239 647 129 q 788 426 788 324 l 788 1010 q 815 1038 788 1038 q 844 1010 844 1038 l 843 101 q 872 28 843 57 q 946 0 901 0 l 983 0 l 982 72 l 946 74 q 917 101 917 75 l 917 1010 q 888 1083 917 1054 q 815 1111 860 1111 q 743 1082 772 1111 q 714 1010 714 1053 z "},"V":{"ha":1108,"x_min":0,"x_max":1108,"o":"m 157 1107 q 82 1011 82 1086 q 85 983 82 994 l 297 186 q 304 140 304 160 q 240 74 304 74 l 0 74 l 0 0 l 243 0 q 351 56 310 0 q 378 140 378 90 q 368 204 378 168 l 156 1001 q 175 1036 149 1029 q 210 1017 203 1044 l 440 156 q 554 85 460 85 q 668 158 649 85 l 899 1015 q 933 1036 906 1043 q 953 1001 960 1029 q 860 649 943 960 q 739 207 768 303 q 728 136 728 169 q 767 38 728 75 q 868 0 807 0 l 1108 0 l 1108 74 l 867 74 q 810 188 776 74 q 1024 983 858 353 q 1028 1010 1028 999 q 951 1107 1028 1088 q 922 1111 935 1111 q 840 1063 869 1111 q 828 1035 831 1047 l 599 179 q 554 157 589 157 q 510 178 518 157 q 281 1036 508 181 q 234 1098 269 1078 q 157 1107 199 1118 z "},"W":{"ha":1113,"x_min":0,"x_max":1113,"o":"m 843 1010 l 843 296 q 750 203 843 203 q 683 228 708 203 q 657 296 657 254 l 657 750 q 629 824 657 796 q 556 851 601 851 q 483 823 511 851 q 454 750 454 794 l 454 296 q 428 228 454 254 q 361 203 403 203 q 294 228 319 203 q 268 296 268 254 l 268 1010 q 240 1083 268 1054 q 167 1111 211 1111 q 94 1083 122 1111 q 65 1010 65 1054 l 65 101 q 36 74 65 75 l 0 72 l 0 0 l 38 0 q 110 29 81 0 q 139 101 139 58 l 139 1010 q 167 1038 139 1038 q 194 1010 194 1038 l 194 296 q 242 176 194 224 q 361 129 289 129 q 481 176 433 129 q 528 296 528 224 l 528 750 q 556 778 528 778 q 585 750 585 778 l 585 296 q 631 176 585 224 q 750 129 678 129 q 869 176 822 129 q 917 296 917 224 l 917 1010 q 946 1038 917 1038 q 974 1010 974 1038 l 974 101 q 1001 28 974 56 q 1075 0 1029 0 l 1111 0 l 1113 72 l 1075 74 q 1047 101 1047 75 l 1047 1010 q 1018 1082 1047 1053 q 946 1111 989 1111 q 873 1082 903 1111 q 843 1010 843 1053 z "},"X":{"ha":1172,"x_min":0,"x_max":1174,"o":"m 318 1107 q 243 1014 243 1088 q 247 983 243 999 l 246 985 q 331 639 283 828 q 346 531 346 578 q 329 444 346 476 l 329 443 l 328 442 l 199 182 q 157 118 183 153 q 101 74 122 74 l 0 74 l 0 0 l 101 0 q 264 150 189 0 l 392 407 q 419 529 419 463 q 400 657 419 585 q 317 1011 317 964 q 338 1036 317 1031 q 372 1017 365 1044 q 369 1004 369 1015 q 472 608 369 933 q 586 538 494 538 q 700 610 682 538 l 801 1017 q 836 1036 808 1043 q 857 1011 857 1031 q 856 1001 857 1008 q 772 660 825 858 q 751 528 751 581 q 782 406 751 449 l 910 150 q 1072 0 985 0 l 1174 0 l 1174 74 l 1072 74 q 1017 118 1051 74 q 975 182 990 151 l 842 447 q 824 528 824 475 q 842 640 824 579 q 928 985 881 772 l 926 983 q 931 1010 931 996 q 854 1107 931 1088 q 825 1111 838 1111 q 747 1068 778 1111 q 731 1035 735 1050 l 631 631 q 586 610 621 610 q 542 631 551 610 q 443 1035 497 817 q 397 1098 432 1078 q 318 1107 361 1118 z "},"Y":{"ha":724,"x_min":0,"x_max":722,"o":"m 454 1010 l 454 685 q 428 617 454 643 q 361 592 403 592 q 293 617 318 592 q 268 686 268 643 l 268 1010 q 240 1083 268 1054 q 167 1111 211 1111 q 94 1083 122 1111 q 65 1010 65 1054 l 65 101 q 36 74 65 75 l 0 72 l 0 0 l 38 0 q 110 28 82 0 q 139 101 139 57 l 139 1010 q 167 1038 139 1038 q 194 1010 194 1038 l 194 685 q 241 565 194 611 q 361 519 288 519 q 481 565 435 519 q 528 685 528 611 l 528 1010 q 556 1038 528 1038 q 585 1010 585 1038 l 585 426 q 554 310 585 371 q 361 203 500 203 l 297 203 q 224 174 253 203 q 194 101 194 146 q 224 28 194 57 q 297 0 253 0 l 722 0 l 722 74 l 297 74 q 268 101 268 74 q 297 129 268 129 l 361 129 q 597 239 518 129 q 657 426 657 321 l 657 1010 q 628 1083 657 1054 q 556 1111 600 1111 q 483 1082 513 1111 q 454 1010 454 1053 z "},"Z":{"ha":725,"x_min":0,"x_max":726,"o":"m 200 1118 q 88 1086 129 1118 q 40 983 40 1050 q 68 871 40 932 q 358 186 115 767 q 372 128 372 153 q 335 81 372 93 q 300 74 315 74 l 0 74 l 0 0 l 301 0 q 428 60 388 0 q 447 128 447 89 q 426 214 447 163 q 286 561 381 329 q 135 901 203 767 q 114 983 114 943 q 200 1044 114 1044 l 558 1044 q 588 1015 588 1044 q 558 988 588 988 l 322 988 q 229 910 229 988 q 242 856 229 889 q 600 0 294 733 l 726 0 l 726 74 l 649 74 l 308 888 q 303 910 303 901 l 303 911 q 322 914 308 914 l 558 914 q 632 942 603 914 q 661 1015 661 971 q 632 1089 661 1060 q 558 1118 603 1118 l 200 1118 z "},"_":{"ha":336,"x_min":0,"x_max":335,"o":"m 0 74 l 0 0 l 335 0 l 335 74 l 0 74 z "},"a":{"ha":1160,"x_min":0,"x_max":1158,"o":"m 560 1118 l 35 74 l 0 74 l 0 0 l 81 0 l 579 997 l 781 594 l 514 594 q 440 567 468 594 q 413 493 413 539 q 441 419 413 449 q 514 390 469 390 l 882 390 l 1078 0 l 1158 0 l 1158 74 l 1122 74 l 928 464 l 514 464 q 485 493 485 464 q 514 521 485 521 l 899 521 l 603 1118 l 560 1118 z "},"b":{"ha":981,"x_min":0,"x_max":982,"o":"m 65 1111 l 65 101 q 36 74 65 75 l 0 72 l 0 0 l 38 0 q 110 28 82 0 q 139 101 139 57 l 139 1038 l 621 1038 q 706 1017 667 1038 q 779 881 779 978 q 706 744 779 783 q 621 722 664 722 l 297 722 q 224 693 254 722 q 194 621 194 664 q 224 548 194 576 q 297 519 253 519 l 621 519 q 706 497 665 519 q 779 361 779 457 q 706 225 779 265 q 621 203 665 203 l 297 203 q 224 174 253 203 q 194 101 194 146 q 224 28 194 57 q 297 0 253 0 l 982 0 l 982 74 l 297 74 q 268 101 268 74 q 297 129 268 129 l 621 129 q 767 176 703 129 q 853 361 853 239 q 767 546 853 483 q 621 592 704 592 l 297 592 q 268 621 268 592 q 297 649 268 649 l 621 649 q 767 696 703 649 q 853 881 853 758 q 767 1064 853 1001 q 621 1111 703 1111 l 65 1111 z "},"c":{"ha":983,"x_min":0,"x_max":985,"o":"m 65 685 l 65 556 q 276 185 65 292 q 490 129 386 129 l 688 129 q 717 101 717 129 q 688 74 717 74 l 0 74 l 0 0 l 688 0 q 760 29 731 0 q 789 101 789 58 q 761 175 789 147 q 688 203 733 203 l 490 203 q 308 249 397 203 q 138 556 138 336 l 138 685 q 308 992 138 904 q 490 1038 397 1038 q 672 992 583 1038 q 843 685 843 903 q 815 657 843 657 q 786 686 786 657 q 726 872 785 792 q 490 982 646 982 q 254 872 333 982 q 194 685 194 790 l 194 556 q 254 369 194 451 q 490 260 335 260 l 688 260 q 772 238 732 260 q 846 101 846 197 q 874 28 846 56 q 947 0 901 0 l 983 0 l 985 72 l 947 74 q 919 101 919 75 q 833 286 919 224 q 688 333 769 333 l 490 333 q 297 440 353 333 q 268 556 268 497 l 268 685 q 297 800 268 743 q 490 908 353 908 q 683 800 628 908 q 714 685 713 743 q 743 612 715 640 q 815 583 771 583 q 888 613 858 583 q 917 685 917 642 q 706 1056 917 949 q 490 1111 596 1111 q 276 1056 386 1111 q 65 685 65 949 z "},"d":{"ha":981,"x_min":0,"x_max":982,"o":"m 65 1111 l 65 101 q 36 74 65 75 l 0 72 l 0 0 l 38 0 q 110 28 82 0 q 139 101 139 57 l 139 1038 l 426 1038 q 642 983 536 1038 q 844 621 844 879 q 642 257 844 363 q 426 203 538 203 l 297 203 q 221 175 250 203 q 193 100 192 147 q 224 28 194 56 q 297 0 253 0 l 982 0 l 982 74 l 297 74 q 265 103 267 74 q 296 129 264 129 l 426 129 q 674 193 549 129 q 917 621 917 317 q 674 1047 917 924 q 426 1111 549 1111 l 65 1111 z "},"e":{"ha":915,"x_min":0,"x_max":917,"o":"m 65 1111 l 65 101 q 36 74 65 75 l 0 72 l 0 0 l 38 0 q 110 28 82 0 q 139 101 139 57 l 139 1038 l 750 1038 q 779 1010 779 1038 q 750 982 779 982 l 361 982 q 242 935 289 982 q 194 815 194 888 q 242 696 194 743 q 361 649 289 649 l 621 649 q 649 621 649 649 q 621 592 649 592 l 361 592 q 242 545 289 592 q 194 426 194 499 q 242 307 194 354 q 361 260 289 260 l 750 260 q 779 231 779 260 q 750 203 779 203 l 297 203 q 224 174 253 203 q 194 101 194 146 q 224 28 194 57 q 297 0 253 0 l 917 0 l 917 74 l 297 74 q 268 101 268 74 q 297 129 268 129 l 750 129 q 823 158 793 129 q 853 231 853 188 q 824 304 853 275 q 750 333 794 333 l 361 333 q 268 426 268 333 q 294 494 268 468 q 361 519 319 519 l 621 519 q 694 547 667 519 q 722 621 722 575 q 694 694 722 665 q 621 722 665 722 l 361 722 q 294 748 319 722 q 268 815 268 774 q 294 883 268 857 q 361 908 319 908 l 750 908 q 824 937 794 908 q 853 1010 853 965 q 824 1083 853 1054 q 750 1111 794 1111 l 65 1111 z "},"f":{"ha":915,"x_min":0,"x_max":917,"o":"m 65 1111 l 65 101 q 36 74 65 75 l 0 72 l 0 0 l 38 0 q 110 28 82 0 q 139 101 139 57 l 139 1038 l 750 1038 q 779 1010 779 1038 q 750 982 779 982 l 361 982 q 242 935 289 982 q 194 815 194 888 q 242 696 194 743 q 361 649 289 649 l 621 649 q 649 621 649 649 q 621 592 649 592 l 361 592 q 242 545 289 592 q 194 426 194 499 l 194 0 l 917 0 l 917 74 l 268 74 l 268 426 q 294 494 268 468 q 361 519 319 519 l 621 519 q 694 547 667 519 q 722 621 722 575 q 694 694 722 665 q 621 722 665 722 l 361 722 q 294 748 319 722 q 268 815 268 774 q 294 883 268 857 q 361 908 319 908 l 750 908 q 824 937 794 908 q 853 1010 853 965 q 824 1083 853 1054 q 750 1111 794 1111 l 65 1111 z "},"g":{"ha":981,"x_min":0,"x_max":982,"o":"m 65 815 l 65 426 q 175 190 65 271 q 361 129 258 129 l 685 129 q 714 101 714 129 q 685 74 714 74 l 0 74 l 0 0 l 685 0 q 758 28 731 0 q 786 101 786 56 q 758 175 786 147 q 685 203 731 203 l 361 203 q 278 218 322 203 q 138 426 138 267 l 138 815 q 246 1008 138 953 q 361 1038 303 1038 l 621 1038 q 736 1008 679 1038 q 843 815 843 953 l 843 750 q 815 722 843 722 q 786 750 786 722 l 786 815 q 740 935 786 889 q 621 982 694 982 l 361 982 q 242 935 289 982 q 194 815 194 888 l 194 426 q 242 307 194 354 q 361 260 289 260 l 685 260 q 758 288 731 260 q 786 361 786 315 q 758 435 786 407 q 685 463 731 463 l 490 463 q 463 490 463 463 q 492 519 463 519 l 685 519 q 771 497 731 519 q 843 361 843 457 l 843 101 q 872 28 843 57 q 944 0 900 0 l 982 0 l 982 74 l 944 74 q 917 101 917 74 l 917 361 q 852 528 917 464 q 685 592 788 592 l 490 592 q 417 563 446 592 q 389 490 389 535 q 418 418 389 447 q 490 389 447 389 l 685 389 q 714 361 714 389 q 685 333 714 333 l 361 333 q 293 358 318 333 q 268 426 268 383 l 268 815 q 293 883 268 858 q 361 908 318 908 l 621 908 q 688 883 663 908 q 714 815 714 857 l 714 750 q 742 677 714 706 q 815 649 771 649 q 888 678 858 649 q 917 750 917 707 l 917 815 q 807 1051 917 971 q 621 1111 725 1111 l 361 1111 q 175 1051 257 1111 q 65 815 65 971 z "},"h":{"ha":981,"x_min":0,"x_max":982,"o":"m 714 1010 l 714 685 q 688 617 714 643 q 621 592 663 592 l 361 592 q 293 617 318 592 q 268 686 268 643 l 268 1010 q 240 1083 268 1054 q 167 1111 211 1111 q 94 1083 122 1111 q 65 1010 65 1054 l 65 101 q 36 74 65 75 l 0 72 l 0 0 l 38 0 q 110 28 82 0 q 139 101 139 57 l 139 1010 q 167 1038 139 1038 q 194 1010 194 1038 l 194 685 q 241 565 194 611 q 361 519 288 519 l 621 519 q 741 565 694 519 q 788 685 788 611 l 788 1010 q 815 1038 788 1038 q 844 1010 844 1038 l 844 101 q 873 28 844 57 q 946 0 901 0 l 982 0 l 982 74 l 946 74 q 917 101 917 74 l 917 1010 q 888 1083 917 1054 q 815 1111 860 1111 q 743 1082 772 1111 q 714 1010 714 1053 z "},"i":{"ha":335,"x_min":0,"x_max":335,"o":"m 297 74 q 268 101 268 75 l 268 881 q 246 946 268 917 q 268 1010 268 974 q 238 1081 268 1051 q 167 1111 208 1111 q 95 1081 125 1111 q 65 1010 65 1051 q 88 946 65 974 q 65 881 65 917 l 65 101 q 36 74 65 75 l 0 72 l 0 0 l 38 0 q 110 28 82 0 q 139 101 139 57 l 139 881 q 167 908 139 908 q 194 879 194 908 l 194 101 q 224 28 194 57 q 297 0 253 -1 l 335 1 l 333 72 l 297 74 m 167 1038 q 194 1010 194 1038 q 167 982 194 982 q 139 1010 139 982 q 167 1038 139 1038 z "},"j":{"ha":724,"x_min":0,"x_max":722,"o":"m 483 1083 q 469 1068 483 1083 q 454 1010 454 1054 l 454 296 q 428 228 454 254 q 361 203 403 203 q 294 228 319 203 q 268 296 268 254 l 268 490 q 240 564 268 536 q 167 592 213 592 q 94 563 122 592 q 65 490 65 535 l 65 101 q 36 74 65 75 l 0 72 l 0 0 l 38 0 q 110 28 82 0 q 139 101 139 57 l 139 490 q 167 519 139 519 q 194 490 194 519 l 194 296 q 242 176 194 224 q 361 129 289 129 q 481 176 433 129 q 528 296 528 224 l 528 1010 q 556 1038 528 1038 q 585 1010 585 1038 l 585 101 q 613 28 585 57 q 686 0 642 0 l 722 0 l 722 74 l 686 74 q 657 101 657 74 l 657 1010 q 628 1083 657 1054 q 556 1111 600 1111 q 483 1083 513 1111 z "},"k":{"ha":976,"x_min":0,"x_max":976,"o":"m 976 78 l 799 78 l 421 371 q 381 443 381 401 q 403 501 381 468 l 488 629 l 704 953 q 722 1011 722 979 q 664 1100 722 1071 q 601 1110 632 1115 q 536 1065 561 1101 l 319 742 q 268 667 300 713 l 268 1010 q 240 1083 268 1054 q 167 1111 211 1111 q 94 1083 122 1111 q 65 1010 65 1054 l 65 104 q 36 76 65 78 l 0 75 l 0 3 l 38 3 q 109 32 81 3 q 138 104 138 61 l 138 1010 q 167 1038 138 1038 q 194 1010 194 1038 l 194 492 l 236 492 l 381 701 l 597 1024 q 636 1032 613 1047 q 643 993 660 1017 l 344 544 q 308 425 301 479 q 375 313 318 357 l 774 0 l 775 3 l 976 3 l 976 78 z "},"l":{"ha":788,"x_min":0,"x_max":788,"o":"m 65 1010 l 65 101 q 36 74 65 75 l 0 72 l 0 0 l 38 0 q 110 28 82 0 q 139 101 139 57 l 139 1010 q 167 1038 139 1038 q 194 1010 194 1038 l 194 426 q 242 307 194 354 q 361 260 289 260 l 621 260 q 649 231 649 260 q 621 203 649 203 l 297 203 q 224 174 253 203 q 194 101 194 146 q 224 28 194 57 q 297 0 253 0 l 788 0 l 788 74 l 297 74 q 268 101 268 74 q 297 129 268 129 l 621 129 q 694 158 665 129 q 722 231 722 186 q 694 304 722 275 q 621 333 665 333 l 361 333 q 293 358 318 333 q 268 426 268 383 l 268 1010 q 240 1083 268 1054 q 167 1111 211 1111 q 94 1082 124 1111 q 65 1010 65 1053 z "},"m":{"ha":981,"x_min":0,"x_max":981,"o":"m 915 101 l 915 1111 l 863 1111 l 490 615 l 118 1111 l 65 1111 l 65 101 q 36 74 65 75 l 0 72 l 0 0 l 38 0 q 110 28 82 0 q 139 101 139 57 l 139 963 l 490 493 l 842 963 l 842 101 q 870 28 842 57 q 943 0 899 0 l 979 0 l 981 72 l 944 74 q 915 101 915 75 z "},"n":{"ha":851,"x_min":0,"x_max":851,"o":"m 582 1007 l 582 192 l 122 1111 l 65 1111 l 65 103 q 36 74 65 74 l 0 74 l 0 1 l 38 1 q 110 30 82 1 q 138 103 138 58 l 138 918 l 599 0 l 656 0 l 656 1007 q 683 1036 656 1036 q 713 1007 713 1036 l 713 103 q 813 1 713 13 l 851 -3 l 850 74 l 814 74 q 785 103 785 74 l 785 1007 q 757 1081 785 1053 q 683 1108 729 1108 q 610 1080 639 1108 q 582 1007 582 1051 z "},"o":{"ha":1119,"x_min":0,"x_max":1118,"o":"m 65 624 q 176 314 65 450 q 457 142 286 178 l 457 74 l 0 74 l 0 0 l 531 0 l 531 204 l 499 208 q 242 348 344 228 q 139 624 139 468 q 261 922 139 799 q 558 1044 383 1044 q 857 922 735 1044 q 979 624 979 800 q 876 348 979 468 q 619 208 774 228 l 588 204 l 588 0 l 1118 0 l 1118 74 l 661 74 l 661 142 q 942 314 832 178 q 1053 624 1053 450 q 909 974 1053 831 q 558 1118 765 1118 q 209 974 353 1118 q 65 624 65 831 z "},"p":{"ha":851,"x_min":0,"x_max":853,"o":"m 65 1111 l 65 101 q 36 74 65 75 l 0 72 l 0 0 l 38 0 q 110 28 82 0 q 139 101 139 57 l 139 1038 l 492 1038 q 607 1008 550 1038 q 714 815 714 953 q 607 622 714 678 q 492 592 547 592 l 297 592 q 224 563 253 592 q 194 490 194 535 l 194 0 l 853 0 l 853 74 l 268 74 l 268 490 q 297 519 268 519 l 492 519 q 678 579 596 519 q 788 815 788 660 q 678 1051 788 971 q 492 1111 596 1111 l 65 1111 z "},"q":{"ha":1240,"x_min":0,"x_max":1240,"o":"m 65 556 q 140 277 65 406 q 346 74 215 149 l 0 74 l 0 0 l 619 0 l 619 74 q 278 214 418 74 q 138 556 138 354 q 278 897 138 757 q 619 1038 418 1038 q 963 898 822 1038 q 1103 556 1103 758 q 1042 321 1103 431 l 757 606 q 683 636 726 636 q 613 605 644 636 q 582 535 582 574 q 614 463 582 493 l 1088 0 l 1240 0 l 1240 74 l 1118 74 q 665 514 1101 89 q 656 533 656 524 q 665 554 656 544 q 706 553 685 574 l 1053 206 l 1078 242 q 1175 556 1175 382 q 1014 950 1175 789 q 619 1111 853 1111 q 226 950 386 1111 q 65 556 65 789 z "},"r":{"ha":851,"x_min":0,"x_max":853,"o":"m 765 74 l 319 519 l 492 519 q 678 579 596 519 q 788 815 788 660 q 678 1051 788 971 q 492 1111 596 1111 l 65 1111 l 65 101 q 36 74 65 75 l 0 72 l 0 0 l 38 0 q 110 28 82 0 q 139 101 139 57 l 139 1038 l 492 1038 q 607 1008 550 1038 q 714 815 714 953 q 607 622 714 678 q 492 592 547 592 l 210 592 l 210 525 l 736 0 l 853 0 l 853 74 l 765 74 z "},"s":{"ha":788,"x_min":0,"x_max":788,"o":"m 65 782 q 188 521 65 610 q 394 454 279 454 q 461 436 428 454 q 519 329 519 404 q 461 221 519 253 q 393 203 429 203 q 326 221 358 203 q 268 329 268 253 l 268 393 q 240 467 268 439 q 167 494 213 494 q 93 467 121 494 q 65 393 65 439 l 65 101 q 36 74 65 75 l 0 72 l 0 0 l 38 0 q 110 29 81 0 q 139 101 139 58 l 139 393 q 167 422 139 422 q 194 393 194 422 l 194 329 q 251 185 194 242 q 394 129 307 129 q 538 185 482 129 q 593 329 593 242 q 537 472 593 415 q 394 528 481 528 q 263 561 326 528 q 139 782 139 625 q 263 1004 139 940 q 394 1038 326 1038 q 525 1004 461 1038 q 649 782 649 940 l 649 750 q 621 722 649 722 q 593 750 593 722 l 593 782 q 538 926 593 869 q 394 982 482 982 q 251 926 307 982 q 194 782 194 869 q 390 583 194 601 q 525 550 476 575 q 649 329 649 486 q 525 107 649 171 q 394 74 461 74 l 394 0 l 788 0 l 788 74 l 608 74 q 722 329 722 163 q 601 590 722 501 q 394 657 510 657 q 326 675 360 657 q 268 782 268 707 l 268 782 q 326 890 268 858 q 394 908 358 908 q 461 890 429 908 q 519 782 519 858 l 519 750 q 548 677 519 706 q 621 649 576 649 q 694 677 665 649 q 722 750 722 706 l 722 782 q 601 1044 722 956 q 394 1111 510 1111 q 188 1044 279 1111 q 65 782 65 956 z "},"t":{"ha":1113,"x_min":0,"x_max":1111,"o":"m 65 1010 q 94 937 65 965 q 167 908 122 908 l 454 908 l 454 167 q 361 74 454 74 l 0 74 l 0 0 l 361 0 q 481 47 435 0 q 528 167 528 93 l 528 982 l 167 982 q 138 1010 138 982 q 167 1038 138 1038 l 944 1038 q 974 1010 974 1038 q 944 982 974 982 l 583 982 l 583 167 q 631 47 583 94 q 750 0 678 0 l 1111 0 l 1111 74 l 750 74 q 657 167 657 74 l 657 908 l 944 908 q 1018 936 990 908 q 1046 1010 1046 964 q 1018 1083 1046 1056 q 944 1111 990 1111 l 167 1111 q 93 1083 121 1111 q 65 1010 65 1056 z "},"u":{"ha":983,"x_min":0,"x_max":983,"o":"m 714 1010 l 714 426 q 685 310 714 367 q 492 203 629 203 q 299 310 354 203 q 268 426 268 369 l 268 1010 q 240 1083 268 1054 q 167 1111 211 1111 q 94 1082 124 1111 q 65 1010 65 1053 l 65 101 q 36 74 65 75 l 0 72 l 0 0 l 38 0 q 110 28 82 0 q 139 101 139 57 l 139 1010 q 167 1038 139 1038 q 194 1010 194 1038 l 194 426 q 256 239 194 322 q 492 129 336 129 q 726 239 647 129 q 788 426 788 324 l 788 1010 q 815 1038 788 1038 q 844 1010 844 1038 l 843 101 q 872 28 843 57 q 946 0 901 0 l 983 0 l 982 72 l 946 74 q 917 101 917 75 l 917 1010 q 888 1083 917 1054 q 815 1111 860 1111 q 743 1082 772 1111 q 714 1010 714 1053 z "},"v":{"ha":1108,"x_min":0,"x_max":1108,"o":"m 157 1107 q 82 1011 82 1086 q 85 983 82 994 l 297 186 q 304 140 304 160 q 240 74 304 74 l 0 74 l 0 0 l 243 0 q 351 56 310 0 q 378 140 378 90 q 368 204 378 168 l 156 1001 q 175 1036 149 1029 q 210 1017 203 1044 l 440 156 q 554 85 460 85 q 668 158 649 85 l 899 1015 q 933 1036 906 1043 q 953 1001 960 1029 q 860 649 943 960 q 739 207 768 303 q 728 136 728 169 q 767 38 728 75 q 868 0 807 0 l 1108 0 l 1108 74 l 867 74 q 810 188 776 74 q 1024 983 858 353 q 1028 1010 1028 999 q 951 1107 1028 1088 q 922 1111 935 1111 q 840 1063 869 1111 q 828 1035 831 1047 l 599 179 q 554 157 589 157 q 510 178 518 157 q 281 1036 508 181 q 234 1098 269 1078 q 157 1107 199 1118 z "},"w":{"ha":1113,"x_min":0,"x_max":1113,"o":"m 843 1010 l 843 296 q 750 203 843 203 q 683 228 708 203 q 657 296 657 254 l 657 750 q 629 824 657 796 q 556 851 601 851 q 483 823 511 851 q 454 750 454 794 l 454 296 q 428 228 454 254 q 361 203 403 203 q 294 228 319 203 q 268 296 268 254 l 268 1010 q 240 1083 268 1054 q 167 1111 211 1111 q 94 1083 122 1111 q 65 1010 65 1054 l 65 101 q 36 74 65 75 l 0 72 l 0 0 l 38 0 q 110 29 81 0 q 139 101 139 58 l 139 1010 q 167 1038 139 1038 q 194 1010 194 1038 l 194 296 q 242 176 194 224 q 361 129 289 129 q 481 176 433 129 q 528 296 528 224 l 528 750 q 556 778 528 778 q 585 750 585 778 l 585 296 q 631 176 585 224 q 750 129 678 129 q 869 176 822 129 q 917 296 917 224 l 917 1010 q 946 1038 917 1038 q 974 1010 974 1038 l 974 101 q 1001 28 974 56 q 1075 0 1029 0 l 1111 0 l 1113 72 l 1075 74 q 1047 101 1047 75 l 1047 1010 q 1018 1082 1047 1053 q 946 1111 989 1111 q 873 1082 903 1111 q 843 1010 843 1053 z "},"x":{"ha":1172,"x_min":0,"x_max":1174,"o":"m 318 1107 q 243 1014 243 1088 q 247 983 243 999 l 246 985 q 331 639 283 828 q 346 531 346 578 q 329 444 346 476 l 329 443 l 328 442 l 199 182 q 157 118 183 153 q 101 74 122 74 l 0 74 l 0 0 l 101 0 q 264 150 189 0 l 392 407 q 419 529 419 463 q 400 657 419 585 q 317 1011 317 964 q 338 1036 317 1031 q 372 1017 365 1044 q 369 1004 369 1015 q 472 608 369 933 q 586 538 494 538 q 700 610 682 538 l 801 1017 q 836 1036 808 1043 q 857 1011 857 1031 q 856 1001 857 1008 q 772 660 825 858 q 751 528 751 581 q 782 406 751 449 l 910 150 q 1072 0 985 0 l 1174 0 l 1174 74 l 1072 74 q 1017 118 1051 74 q 975 182 990 151 l 842 447 q 824 528 824 475 q 842 640 824 579 q 928 985 881 772 l 926 983 q 931 1010 931 996 q 854 1107 931 1088 q 825 1111 838 1111 q 747 1068 778 1111 q 731 1035 735 1050 l 631 631 q 586 610 621 610 q 542 631 551 610 q 443 1035 497 817 q 397 1098 432 1078 q 318 1107 361 1118 z "},"y":{"ha":724,"x_min":0,"x_max":722,"o":"m 454 1010 l 454 685 q 428 617 454 643 q 361 592 403 592 q 293 617 318 592 q 268 686 268 643 l 268 1010 q 240 1083 268 1054 q 167 1111 211 1111 q 94 1083 122 1111 q 65 1010 65 1054 l 65 101 q 36 74 65 75 l 0 72 l 0 0 l 38 0 q 110 28 82 0 q 139 101 139 57 l 139 1010 q 167 1038 139 1038 q 194 1010 194 1038 l 194 685 q 241 565 194 611 q 361 519 288 519 q 481 565 435 519 q 528 685 528 611 l 528 1010 q 556 1038 528 1038 q 585 1010 585 1038 l 585 426 q 554 310 585 371 q 361 203 500 203 l 297 203 q 224 174 253 203 q 194 101 194 146 q 224 28 194 57 q 297 0 253 0 l 722 0 l 722 74 l 297 74 q 268 101 268 74 q 297 129 268 129 l 361 129 q 597 239 518 129 q 657 426 657 321 l 657 1010 q 628 1083 657 1054 q 556 1111 600 1111 q 483 1082 513 1111 q 454 1010 454 1053 z "},"z":{"ha":725,"x_min":0,"x_max":726,"o":"m 200 1118 q 88 1086 129 1118 q 40 983 40 1050 q 68 871 40 932 q 358 186 115 767 q 372 128 372 153 q 335 81 372 93 q 300 74 315 74 l 0 74 l 0 0 l 301 0 q 428 60 388 0 q 447 128 447 89 q 426 214 447 163 q 286 561 381 329 q 135 901 203 767 q 114 983 114 943 q 200 1044 114 1044 l 558 1044 q 588 1015 588 1044 q 558 988 588 988 l 322 988 q 229 910 229 988 q 242 856 229 889 q 600 0 294 733 l 726 0 l 726 74 l 649 74 l 308 888 q 303 910 303 901 l 303 911 q 322 914 308 914 l 558 914 q 632 942 603 914 q 661 1015 661 971 q 632 1089 661 1060 q 558 1118 603 1118 l 200 1118 z "}}}
